<svg xmlns="http://www.w3.org/2000/svg" version="1.1" xmlns:xlink="http://www.w3.org/1999/xlink" xmlns:svgjs="http://svgjs.dev/svgjs" width="1500" height="1500" viewBox="0 0 1500 1500"><rect width="1500" height="1500" fill="#000000"></rect><g transform="matrix(0.6666666666666666,0,0,0.6666666666666666,249.39393939393938,640.9064315041227)"><svg viewBox="0 0 396 86" data-background-color="#000000" preserveAspectRatio="xMidYMid meet" height="325" width="1500" xmlns="http://www.w3.org/2000/svg" xmlns:xlink="http://www.w3.org/1999/xlink"><g id="tight-bounds" transform="matrix(1,0,0,1,0.2400000000000091,0.30175487990206307)"><svg viewBox="0 0 395.52 85.39634216099591" height="85.39634216099591" width="395.52"><rect width="395.52" height="85.39649024019586" fill="#ffffff" mask="url(#a9102f69-1674-40df-968f-49958b893505)" data-fill-palette-color="tertiary"></rect><g><svg viewBox="0 0 550.8884464417551 118.94179375222389" height="85.39634216099591" width="395.52"><g transform="matrix(1,0,0,1,155.36844644175517,20.89576356148944)"><svg viewBox="0 0 395.52 77.15026662924501" height="77.15026662924501" width="395.52"><g id="textblocktransform"><svg viewBox="0 0 395.52 77.15026662924501" height="77.15026662924501" width="395.52" id="textblock"><g><svg viewBox="0 0 395.52 77.15026662924501" height="77.15026662924501" width="395.52"><g transform="matrix(1,0,0,1,0,0)"><svg width="395.52" viewBox="2.76 -33.45 173.96 33.940000000000005" height="77.15026662924501" data-palette-color="url(#53e91cbc-8be5-414d-872e-3d32c8b1f4f2)"></svg></g></svg></g></svg></g></svg></g><g><svg viewBox="0 0 118.94179375222389 118.94179375222389" height="118.94179375222389" width="118.94179375222389"><g><svg></svg></g><g id="icon-0"><svg viewBox="0 0 118.94179375222389 118.94179375222389" height="118.94179375222389" width="118.94179375222389"><g><path d="M0 59.471c0-32.845 26.626-59.471 59.471-59.471 32.845 0 59.471 26.626 59.471 59.471 0 32.845-26.626 59.471-59.471 59.471-32.845 0-59.471-26.626-59.471-59.471zM59.471 111.984c29.002 0 52.513-23.511 52.513-52.513 0-29.002-23.511-52.513-52.513-52.514-29.002 0-52.513 23.511-52.514 52.514 0 29.002 23.511 52.513 52.514 52.513z" data-fill-palette-color="tertiary" fill="#ffffff" stroke="transparent"></path></g><g transform="matrix(1,0,0,1,41.186137121575385,27.955581086308158)"><svg viewBox="0 0 36.569519509073125 63.03063157960757" height="63.03063157960757" width="36.569519509073125"><g><svg xmlns="http://www.w3.org/2000/svg" xmlns:xlink="http://www.w3.org/1999/xlink" version="1.1" x="0" y="0" viewBox="21.679106830508616 1 56.85827385947762 98" enable-background="new 0 0 100 100" xml:space="preserve" height="63.03063157960757" width="36.569519509073125" class="icon-dxe-0" data-fill-palette-color="accent" id="dxe-0"></svg></g></svg></g></svg></g></svg></g></svg></g><defs></defs><mask id="565ad867-1a65-4291-adaa-1db9b035cffd"><g id="SvgjsG6786"><svg viewBox="0 0 395.52 85.39634216099591" height="85.39634216099591" width="395.52"><g><svg viewBox="0 0 550.8884464417551 118.94179375222389" height="85.39634216099591" width="395.52"><g transform="matrix(1,0,0,1,155.36844644175517,20.89576356148944)"><svg viewBox="0 0 395.52 77.15026662924501" height="77.15026662924501" width="395.52"><g id="SvgjsG6785"><svg viewBox="0 0 395.52 77.15026662924501" height="77.15026662924501" width="395.52" id="SvgjsSvg6784"><g><svg viewBox="0 0 395.52 77.15026662924501" height="77.15026662924501" width="395.52"><g transform="matrix(1,0,0,1,0,0)"><svg width="395.52" viewBox="2.76 -33.45 173.96 33.940000000000005" height="77.15026662924501" data-palette-color="url(#53e91cbc-8be5-414d-872e-3d32c8b1f4f2)"><path d="M26.88-17.21L26.88-3.25Q21.29 0.49 15.6 0.49L15.6 0.49Q9.5 0.49 6.13-4.04 2.76-8.57 2.76-16.63L2.76-16.63Q2.76-25.1 5.98-29.27 9.2-33.45 15.67-33.45L15.67-33.45Q24.12-33.45 26.93-25.37L26.93-25.37 22.75-24Q20.8-29.64 15.72-29.64L15.72-29.64Q11.6-29.64 9.63-26.56 7.67-23.49 7.67-16.63L7.67-16.63Q7.67-3.3 15.99-3.3L15.99-3.3Q17.65-3.3 19.43-3.81 21.22-4.32 22.34-5.1L22.34-5.1 22.34-13.31 15.19-13.31 15.19-17.21 26.88-17.21ZM56.78-13.23L56.78-13.23Q56.78-6.57 53.72-3.04 50.66 0.49 44.87 0.49L44.87 0.49Q39.21 0.49 36.19-3.08 33.18-6.64 33.18-13.23L33.18-13.23Q33.18-20.04 36.26-23.47 39.35-26.9 45.02-26.9L45.02-26.9Q50.97-26.9 53.88-23.51 56.78-20.12 56.78-13.23ZM52.17-13.23L52.17-13.23Q52.17-18.48 50.5-21.07 48.83-23.66 45.09-23.66L45.09-23.66Q41.31-23.66 39.55-21.02 37.79-18.38 37.79-13.23L37.79-13.23Q37.79-8.11 39.55-5.43 41.31-2.76 44.82-2.76L44.82-2.76Q48.7-2.76 50.44-5.37 52.17-7.98 52.17-13.23ZM88.13-9.28L88.13-9.28Q88.13-4.88 84.79-2.44 81.44 0 75.48 0L75.48 0 63.96 0 63.96-32.93 74.02-32.93Q86.13-32.93 86.13-24.95L86.13-24.95Q86.13-21.97 84.37-19.97 82.61-17.97 79.58-17.36L79.58-17.36Q83.66-16.92 85.9-14.75 88.13-12.57 88.13-9.28ZM81.44-24.37L81.44-24.37Q81.44-26.98 79.6-28.09 77.75-29.2 74.07-29.2L74.07-29.2 68.62-29.2 68.62-19.04 74.12-19.04Q81.44-19.04 81.44-24.37ZM83.42-9.69L83.42-9.69Q83.42-12.48 81.25-13.94 79.07-15.41 74.78-15.41L74.78-15.41 68.62-15.41 68.62-3.74 75.12-3.74Q79.39-3.74 81.4-5.21 83.42-6.69 83.42-9.69ZM116.89-2.71L116.89-2.71Q117.52-2.71 118.33-2.88L118.33-2.88 118.33-0.15Q116.67 0.24 114.93 0.24L114.93 0.24Q112.49 0.24 111.38-1.04 110.27-2.32 110.12-5.05L110.12-5.05 109.98-5.05Q108.39-2.1 106.23-0.81 104.07 0.49 100.9 0.49L100.9 0.49Q97.04 0.49 95.09-1.61 93.13-3.71 93.13-7.37L93.13-7.37Q93.13-15.89 104.22-16.02L104.22-16.02 109.98-16.11 109.98-17.55Q109.98-20.75 108.68-22.16 107.39-23.56 104.56-23.56L104.56-23.56Q101.68-23.56 100.41-22.53 99.14-21.51 98.89-19.36L98.89-19.36 94.3-19.78Q95.43-26.9 104.63-26.9L104.63-26.9Q109.51-26.9 111.97-24.62 114.42-22.34 114.42-18.02L114.42-18.02 114.42-6.64Q114.42-4.69 114.93-3.7 115.45-2.71 116.89-2.71ZM102.02-2.86L102.02-2.86Q104.36-2.86 106.17-3.98 107.98-5.1 108.98-6.98 109.98-8.86 109.98-10.86L109.98-10.86 109.98-13.04 105.34-12.94Q102.46-12.89 100.94-12.3 99.43-11.72 98.59-10.51 97.75-9.3 97.75-7.3L97.75-7.3Q97.75-5.3 98.83-4.08 99.92-2.86 102.02-2.86ZM145.89-7.54L145.89-7.54Q145.89-3.78 143.04-1.65 140.2 0.49 135.17 0.49L135.17 0.49Q130.14 0.49 127.52-1.09 124.89-2.66 124.09-6.05L124.09-6.05 127.97-6.81Q128.43-4.71 129.96-3.75 131.48-2.78 135.17-2.78L135.17-2.78Q141.76-2.78 141.76-6.96L141.76-6.96Q141.76-8.52 140.57-9.48 139.37-10.45 136.9-11.06L136.9-11.06Q130.46-12.65 128.73-13.55 126.99-14.45 126.06-15.81 125.14-17.16 125.14-19.19L125.14-19.19Q125.14-22.78 127.72-24.8 130.31-26.83 135.22-26.83L135.22-26.83Q139.52-26.83 142.08-25.21 144.64-23.58 145.28-20.48L145.28-20.48 141.32-20Q141.05-21.75 139.59-22.66 138.12-23.56 135.22-23.56L135.22-23.56Q129.24-23.56 129.24-19.87L129.24-19.87Q129.24-18.41 130.25-17.53 131.26-16.65 133.51-16.11L133.51-16.11 136.42-15.36Q140.4-14.38 142.14-13.43 143.89-12.48 144.89-11.05 145.89-9.62 145.89-7.54ZM176.72-12.28L157.87-12.28Q157.87-7.84 159.84-5.32 161.8-2.81 165.22-2.81L165.22-2.81Q167.74-2.81 169.63-3.89 171.52-4.98 172.16-6.86L172.16-6.86 176.01-5.76Q174.94-2.73 172.07-1.12 169.2 0.49 165.22 0.49L165.22 0.49Q159.46 0.49 156.36-3.1 153.26-6.69 153.26-13.38L153.26-13.38Q153.26-19.9 156.3-23.4 159.34-26.9 165.08-26.9L165.08-26.9Q170.81-26.9 173.77-23.41 176.72-19.92 176.72-12.87L176.72-12.87 176.72-12.28ZM165.12-23.66L165.12-23.66Q161.85-23.66 159.95-21.52 158.04-19.38 157.92-15.65L157.92-15.65 172.18-15.65Q171.5-23.66 165.12-23.66Z" opacity="1" transform="matrix(1,0,0,1,0,0)" fill="white" class="wordmark-text-0" id="SvgjsPath6783"></path></svg></g></svg></g></svg></g></svg></g><g><svg viewBox="0 0 118.94179375222389 118.94179375222389" height="118.94179375222389" width="118.94179375222389"><g><svg></svg></g><g id="SvgjsG6782"><svg viewBox="0 0 118.94179375222389 118.94179375222389" height="118.94179375222389" width="118.94179375222389"><g><path d="M0 59.471c0-32.845 26.626-59.471 59.471-59.471 32.845 0 59.471 26.626 59.471 59.471 0 32.845-26.626 59.471-59.471 59.471-32.845 0-59.471-26.626-59.471-59.471zM59.471 111.984c29.002 0 52.513-23.511 52.513-52.513 0-29.002-23.511-52.513-52.513-52.514-29.002 0-52.513 23.511-52.514 52.514 0 29.002 23.511 52.513 52.514 52.513z" fill="black" stroke="transparent"></path></g><g transform="matrix(1,0,0,1,41.186137121575385,27.955581086308158)"><svg viewBox="0 0 36.569519509073125 63.03063157960757" height="63.03063157960757" width="36.569519509073125"><g><svg xmlns="http://www.w3.org/2000/svg" xmlns:xlink="http://www.w3.org/1999/xlink" version="1.1" x="0" y="0" viewBox="21.679106830508616 1 56.85827385947762 98" enable-background="new 0 0 100 100" xml:space="preserve" height="63.03063157960757" width="36.569519509073125" class="icon-dxe-0" data-fill-palette-color="accent" id="SvgjsSvg6781"><g fill="black"><path fill-rule="evenodd" clip-rule="evenodd" d="M30.545 28.822C29.38 36.039 30.875 43.672 37.045 47.863 30.758 19.81 45.756 8.664 59.646 1 43.466 24.046 76.542 24.644 78.423 51.13 80.028 73.71 64.507 91.317 46.639 99 46.845 76.175 24.089 73.067 21.801 54.397 20.905 47.094 25.062 33.766 30.545 28.822" fill="black"></path></g></svg></g></svg></g></svg></g></svg></g></svg></g><defs><mask></mask></defs></svg><rect width="395.52" height="85.39634216099591" fill="black" stroke="none" visibility="hidden"></rect></g></mask><linearGradient x1="0" x2="1" y1="0.548" y2="0.55" id="53e91cbc-8be5-414d-872e-3d32c8b1f4f2"><stop stop-color="#ff6cab" offset="0"></stop><stop stop-color="#7366ff" offset="1"></stop></linearGradient><rect width="395.52" height="85.39649024019586" fill="#ffffff" mask="url(#565ad867-1a65-4291-adaa-1db9b035cffd)" data-fill-palette-color="primary"></rect><mask id="bab760fd-ca66-4624-bd31-b946fe525e24"><g id="SvgjsG6809"><svg viewBox="0 0 395.52 85.39634216099591" height="85.39634216099591" width="395.52"><g><svg viewBox="0 0 550.8884464417551 118.94179375222389" height="85.39634216099591" width="395.52"><g transform="matrix(1,0,0,1,155.36844644175517,20.89576356148944)"><svg viewBox="0 0 395.52 77.15026662924501" height="77.15026662924501" width="395.52"><g id="SvgjsG6808"><svg viewBox="0 0 395.52 77.15026662924501" height="77.15026662924501" width="395.52" id="SvgjsSvg6807"><g><svg viewBox="0 0 395.52 77.15026662924501" height="77.15026662924501" width="395.52"><g transform="matrix(1,0,0,1,0,0)"><svg width="395.52" viewBox="2.76 -33.45 173.96 33.940000000000005" height="77.15026662924501" data-palette-color="url(#53e91cbc-8be5-414d-872e-3d32c8b1f4f2)"></svg></g></svg></g></svg></g></svg></g><g><svg viewBox="0 0 118.94179375222389 118.94179375222389" height="118.94179375222389" width="118.94179375222389"><g><svg></svg></g><g id="SvgjsG6806"><svg viewBox="0 0 118.94179375222389 118.94179375222389" height="118.94179375222389" width="118.94179375222389"><g><path d="M0 59.471c0-32.845 26.626-59.471 59.471-59.471 32.845 0 59.471 26.626 59.471 59.471 0 32.845-26.626 59.471-59.471 59.471-32.845 0-59.471-26.626-59.471-59.471zM59.471 111.984c29.002 0 52.513-23.511 52.513-52.513 0-29.002-23.511-52.513-52.513-52.514-29.002 0-52.513 23.511-52.514 52.514 0 29.002 23.511 52.513 52.514 52.513z" fill="black" stroke="transparent"></path></g><g transform="matrix(1,0,0,1,41.186137121575385,27.955581086308158)"><svg viewBox="0 0 36.569519509073125 63.03063157960757" height="63.03063157960757" width="36.569519509073125"><g><svg xmlns="http://www.w3.org/2000/svg" xmlns:xlink="http://www.w3.org/1999/xlink" version="1.1" x="0" y="0" viewBox="21.679106830508616 1 56.85827385947762 98" enable-background="new 0 0 100 100" xml:space="preserve" height="63.03063157960757" width="36.569519509073125" class="icon-dxe-0" data-fill-palette-color="accent" id="SvgjsSvg6805"><g fill="white"><path fill-rule="evenodd" clip-rule="evenodd" d="M30.545 28.822C29.38 36.039 30.875 43.672 37.045 47.863 30.758 19.81 45.756 8.664 59.646 1 43.466 24.046 76.542 24.644 78.423 51.13 80.028 73.71 64.507 91.317 46.639 99 46.845 76.175 24.089 73.067 21.801 54.397 20.905 47.094 25.062 33.766 30.545 28.822" fill="white"></path></g></svg></g></svg></g></svg></g></svg></g></svg></g><defs><mask></mask></defs><mask><g id="SvgjsG6804"><svg viewBox="0 0 395.52 85.39634216099591" height="85.39634216099591" width="395.52"><g><svg viewBox="0 0 550.8884464417551 118.94179375222389" height="85.39634216099591" width="395.52"><g transform="matrix(1,0,0,1,155.36844644175517,20.89576356148944)"><svg viewBox="0 0 395.52 77.15026662924501" height="77.15026662924501" width="395.52"><g id="SvgjsG6803"><svg viewBox="0 0 395.52 77.15026662924501" height="77.15026662924501" width="395.52" id="SvgjsSvg6802"><g><svg viewBox="0 0 395.52 77.15026662924501" height="77.15026662924501" width="395.52"><g transform="matrix(1,0,0,1,0,0)"><svg width="395.52" viewBox="2.76 -33.45 173.96 33.940000000000005" height="77.15026662924501" data-palette-color="url(#53e91cbc-8be5-414d-872e-3d32c8b1f4f2)"><path d="M26.88-17.21L26.88-3.25Q21.29 0.49 15.6 0.49L15.6 0.49Q9.5 0.49 6.13-4.04 2.76-8.57 2.76-16.63L2.76-16.63Q2.76-25.1 5.98-29.27 9.2-33.45 15.67-33.45L15.67-33.45Q24.12-33.45 26.93-25.37L26.93-25.37 22.75-24Q20.8-29.64 15.72-29.64L15.72-29.64Q11.6-29.64 9.63-26.56 7.67-23.49 7.67-16.63L7.67-16.63Q7.67-3.3 15.99-3.3L15.99-3.3Q17.65-3.3 19.43-3.81 21.22-4.32 22.34-5.1L22.34-5.1 22.34-13.31 15.19-13.31 15.19-17.21 26.88-17.21ZM56.78-13.23L56.78-13.23Q56.78-6.57 53.72-3.04 50.66 0.49 44.87 0.49L44.87 0.49Q39.21 0.49 36.19-3.08 33.18-6.64 33.18-13.23L33.18-13.23Q33.18-20.04 36.26-23.47 39.35-26.9 45.02-26.9L45.02-26.9Q50.97-26.9 53.88-23.51 56.78-20.12 56.78-13.23ZM52.17-13.23L52.17-13.23Q52.17-18.48 50.5-21.07 48.83-23.66 45.09-23.66L45.09-23.66Q41.31-23.66 39.55-21.02 37.79-18.38 37.79-13.23L37.79-13.23Q37.79-8.11 39.55-5.43 41.31-2.76 44.82-2.76L44.82-2.76Q48.7-2.76 50.44-5.37 52.17-7.98 52.17-13.23ZM88.13-9.28L88.13-9.28Q88.13-4.88 84.79-2.44 81.44 0 75.48 0L75.48 0 63.96 0 63.96-32.93 74.02-32.93Q86.13-32.93 86.13-24.95L86.13-24.95Q86.13-21.97 84.37-19.97 82.61-17.97 79.58-17.36L79.58-17.36Q83.66-16.92 85.9-14.75 88.13-12.57 88.13-9.28ZM81.44-24.37L81.44-24.37Q81.44-26.98 79.6-28.09 77.75-29.2 74.07-29.2L74.07-29.2 68.62-29.2 68.62-19.04 74.12-19.04Q81.44-19.04 81.44-24.37ZM83.42-9.69L83.42-9.69Q83.42-12.48 81.25-13.94 79.07-15.41 74.78-15.41L74.78-15.41 68.62-15.41 68.62-3.74 75.12-3.74Q79.39-3.74 81.4-5.21 83.42-6.69 83.42-9.69ZM116.89-2.71L116.89-2.71Q117.52-2.71 118.33-2.88L118.33-2.88 118.33-0.15Q116.67 0.24 114.93 0.24L114.93 0.24Q112.49 0.24 111.38-1.04 110.27-2.32 110.12-5.05L110.12-5.05 109.98-5.05Q108.39-2.1 106.23-0.81 104.07 0.49 100.9 0.49L100.9 0.49Q97.04 0.49 95.09-1.61 93.13-3.71 93.13-7.37L93.13-7.37Q93.13-15.89 104.22-16.02L104.22-16.02 109.98-16.11 109.98-17.55Q109.98-20.75 108.68-22.16 107.39-23.56 104.56-23.56L104.56-23.56Q101.68-23.56 100.41-22.53 99.14-21.51 98.89-19.36L98.89-19.36 94.3-19.78Q95.43-26.9 104.63-26.9L104.63-26.9Q109.51-26.9 111.97-24.62 114.42-22.34 114.42-18.02L114.42-18.02 114.42-6.64Q114.42-4.69 114.93-3.7 115.45-2.71 116.89-2.71ZM102.02-2.86L102.02-2.86Q104.36-2.86 106.17-3.98 107.98-5.1 108.98-6.98 109.98-8.86 109.98-10.86L109.98-10.86 109.98-13.04 105.34-12.94Q102.46-12.89 100.94-12.3 99.43-11.72 98.59-10.51 97.75-9.3 97.75-7.3L97.75-7.3Q97.75-5.3 98.83-4.08 99.92-2.86 102.02-2.86ZM145.89-7.54L145.89-7.54Q145.89-3.78 143.04-1.65 140.2 0.49 135.17 0.49L135.17 0.49Q130.14 0.49 127.52-1.09 124.89-2.66 124.09-6.05L124.09-6.05 127.97-6.81Q128.43-4.71 129.96-3.75 131.48-2.78 135.17-2.78L135.17-2.78Q141.76-2.78 141.76-6.96L141.76-6.96Q141.76-8.52 140.57-9.48 139.37-10.45 136.9-11.06L136.9-11.06Q130.46-12.65 128.73-13.55 126.99-14.45 126.06-15.81 125.14-17.16 125.14-19.19L125.14-19.19Q125.14-22.78 127.72-24.8 130.31-26.83 135.22-26.83L135.22-26.83Q139.52-26.83 142.08-25.21 144.64-23.58 145.28-20.48L145.28-20.48 141.32-20Q141.05-21.75 139.59-22.66 138.12-23.56 135.22-23.56L135.22-23.56Q129.24-23.56 129.24-19.87L129.24-19.87Q129.24-18.41 130.25-17.53 131.26-16.65 133.51-16.11L133.51-16.11 136.42-15.36Q140.4-14.38 142.14-13.43 143.89-12.48 144.89-11.05 145.89-9.62 145.89-7.54ZM176.72-12.28L157.87-12.28Q157.87-7.84 159.84-5.32 161.8-2.81 165.22-2.81L165.22-2.81Q167.74-2.81 169.63-3.89 171.52-4.98 172.16-6.86L172.16-6.86 176.01-5.76Q174.94-2.73 172.07-1.12 169.2 0.49 165.22 0.49L165.22 0.49Q159.46 0.49 156.36-3.1 153.26-6.69 153.26-13.38L153.26-13.38Q153.26-19.9 156.3-23.4 159.34-26.9 165.08-26.9L165.08-26.9Q170.81-26.9 173.77-23.41 176.72-19.92 176.72-12.87L176.72-12.87 176.72-12.28ZM165.12-23.66L165.12-23.66Q161.85-23.66 159.95-21.52 158.04-19.38 157.92-15.65L157.92-15.65 172.18-15.65Q171.5-23.66 165.12-23.66Z" opacity="1" transform="matrix(1,0,0,1,0,0)" fill="black" class="wordmark-text-0" id="SvgjsPath6801"></path></svg></g></svg></g></svg></g></svg></g><g><svg viewBox="0 0 118.94179375222389 118.94179375222389" height="118.94179375222389" width="118.94179375222389"><g><svg></svg></g><g id="SvgjsG6800"><svg viewBox="0 0 118.94179375222389 118.94179375222389" height="118.94179375222389" width="118.94179375222389"><g><path d="M0 59.471c0-32.845 26.626-59.471 59.471-59.471 32.845 0 59.471 26.626 59.471 59.471 0 32.845-26.626 59.471-59.471 59.471-32.845 0-59.471-26.626-59.471-59.471zM59.471 111.984c29.002 0 52.513-23.511 52.513-52.513 0-29.002-23.511-52.513-52.513-52.514-29.002 0-52.513 23.511-52.514 52.514 0 29.002 23.511 52.513 52.514 52.513z" fill="black" stroke="transparent"></path></g><g transform="matrix(1,0,0,1,41.186137121575385,27.955581086308158)"><svg viewBox="0 0 36.569519509073125 63.03063157960757" height="63.03063157960757" width="36.569519509073125"><g><svg xmlns="http://www.w3.org/2000/svg" xmlns:xlink="http://www.w3.org/1999/xlink" version="1.1" x="0" y="0" viewBox="21.679106830508616 1 56.85827385947762 98" enable-background="new 0 0 100 100" xml:space="preserve" height="63.03063157960757" width="36.569519509073125" class="icon-dxe-0" data-fill-palette-color="accent" id="SvgjsSvg6799"><g fill="black"><path fill-rule="evenodd" clip-rule="evenodd" d="M30.545 28.822C29.38 36.039 30.875 43.672 37.045 47.863 30.758 19.81 45.756 8.664 59.646 1 43.466 24.046 76.542 24.644 78.423 51.13 80.028 73.71 64.507 91.317 46.639 99 46.845 76.175 24.089 73.067 21.801 54.397 20.905 47.094 25.062 33.766 30.545 28.822" fill="black"></path></g></svg></g></svg></g></svg></g></svg></g></svg></g><defs><mask></mask></defs></svg><rect width="395.52" height="85.39634216099591" fill="black" stroke="none" visibility="hidden"></rect></g></mask></svg><rect width="395.52" height="85.39634216099591" fill="black" stroke="none" visibility="hidden"></rect></g></mask><linearGradient x1="0" x2="1" y1="0.548" y2="0.55" id="29aaf2e2-5505-4860-82b3-c259dd4a33c7"><stop stop-color="#ff6cab" offset="0"></stop><stop stop-color="#7366ff" offset="1"></stop></linearGradient><rect width="395.52" height="85.39649024019586" fill="#ffffff" mask="url(#bab760fd-ca66-4624-bd31-b946fe525e24)" data-fill-palette-color="accent"></rect><mask id="a9102f69-1674-40df-968f-49958b893505"><g id="SvgjsG6831"><svg viewBox="0 0 395.52 85.39634216099591" height="85.39634216099591" width="395.52"><g><svg viewBox="0 0 550.8884464417551 118.94179375222389" height="85.39634216099591" width="395.52"><g transform="matrix(1,0,0,1,155.36844644175517,20.89576356148944)"><svg viewBox="0 0 395.52 77.15026662924501" height="77.15026662924501" width="395.52"><g id="SvgjsG6830"><svg viewBox="0 0 395.52 77.15026662924501" height="77.15026662924501" width="395.52" id="SvgjsSvg6829"><g><svg viewBox="0 0 395.52 77.15026662924501" height="77.15026662924501" width="395.52"><g transform="matrix(1,0,0,1,0,0)"><svg width="395.52" viewBox="2.76 -33.45 173.96 33.940000000000005" height="77.15026662924501" data-palette-color="url(#53e91cbc-8be5-414d-872e-3d32c8b1f4f2)"></svg></g></svg></g></svg></g></svg></g><g><svg viewBox="0 0 118.94179375222389 118.94179375222389" height="118.94179375222389" width="118.94179375222389"><g><svg></svg></g><g id="SvgjsG6828"><svg viewBox="0 0 118.94179375222389 118.94179375222389" height="118.94179375222389" width="118.94179375222389"><g><path d="M0 59.471c0-32.845 26.626-59.471 59.471-59.471 32.845 0 59.471 26.626 59.471 59.471 0 32.845-26.626 59.471-59.471 59.471-32.845 0-59.471-26.626-59.471-59.471zM59.471 111.984c29.002 0 52.513-23.511 52.513-52.513 0-29.002-23.511-52.513-52.513-52.514-29.002 0-52.513 23.511-52.514 52.514 0 29.002 23.511 52.513 52.514 52.513z" fill="white" stroke="transparent"></path></g><g transform="matrix(1,0,0,1,41.186137121575385,27.955581086308158)"><svg viewBox="0 0 36.569519509073125 63.03063157960757" height="63.03063157960757" width="36.569519509073125"><g><svg xmlns="http://www.w3.org/2000/svg" xmlns:xlink="http://www.w3.org/1999/xlink" version="1.1" x="0" y="0" viewBox="21.679106830508616 1 56.85827385947762 98" enable-background="new 0 0 100 100" xml:space="preserve" height="63.03063157960757" width="36.569519509073125" class="icon-dxe-0" data-fill-palette-color="accent" id="SvgjsSvg6827"></svg></g></svg></g></svg></g></svg></g></svg></g><defs><mask></mask></defs><mask><g id="SvgjsG6826"><svg viewBox="0 0 395.52 85.39634216099591" height="85.39634216099591" width="395.52"><g><svg viewBox="0 0 550.8884464417551 118.94179375222389" height="85.39634216099591" width="395.52"><g transform="matrix(1,0,0,1,155.36844644175517,20.89576356148944)"><svg viewBox="0 0 395.52 77.15026662924501" height="77.15026662924501" width="395.52"><g id="SvgjsG6825"><svg viewBox="0 0 395.52 77.15026662924501" height="77.15026662924501" width="395.52" id="SvgjsSvg6824"><g><svg viewBox="0 0 395.52 77.15026662924501" height="77.15026662924501" width="395.52"><g transform="matrix(1,0,0,1,0,0)"><svg width="395.52" viewBox="2.76 -33.45 173.96 33.940000000000005" height="77.15026662924501" data-palette-color="url(#53e91cbc-8be5-414d-872e-3d32c8b1f4f2)"><path d="M26.88-17.21L26.88-3.25Q21.29 0.49 15.6 0.49L15.6 0.49Q9.5 0.49 6.13-4.04 2.76-8.57 2.76-16.63L2.76-16.63Q2.76-25.1 5.98-29.27 9.2-33.45 15.67-33.45L15.67-33.45Q24.12-33.45 26.93-25.37L26.93-25.37 22.75-24Q20.8-29.64 15.72-29.64L15.72-29.64Q11.6-29.64 9.63-26.56 7.67-23.49 7.67-16.63L7.67-16.63Q7.67-3.3 15.99-3.3L15.99-3.3Q17.65-3.3 19.43-3.81 21.22-4.32 22.34-5.1L22.34-5.1 22.34-13.31 15.19-13.31 15.19-17.21 26.88-17.21ZM56.78-13.23L56.78-13.23Q56.78-6.57 53.72-3.04 50.66 0.49 44.87 0.49L44.87 0.49Q39.21 0.49 36.19-3.08 33.18-6.64 33.18-13.23L33.18-13.23Q33.18-20.04 36.26-23.47 39.35-26.9 45.02-26.9L45.02-26.9Q50.97-26.9 53.88-23.51 56.78-20.12 56.78-13.23ZM52.17-13.23L52.17-13.23Q52.17-18.48 50.5-21.07 48.83-23.66 45.09-23.66L45.09-23.66Q41.31-23.66 39.55-21.02 37.79-18.38 37.79-13.23L37.79-13.23Q37.79-8.11 39.55-5.43 41.31-2.76 44.82-2.76L44.82-2.76Q48.7-2.76 50.44-5.37 52.17-7.98 52.17-13.23ZM88.13-9.28L88.13-9.28Q88.13-4.88 84.79-2.44 81.44 0 75.48 0L75.48 0 63.96 0 63.96-32.93 74.02-32.93Q86.13-32.93 86.13-24.95L86.13-24.95Q86.13-21.97 84.37-19.97 82.61-17.97 79.58-17.36L79.58-17.36Q83.66-16.92 85.9-14.75 88.13-12.57 88.13-9.28ZM81.44-24.37L81.44-24.37Q81.44-26.98 79.6-28.09 77.75-29.2 74.07-29.2L74.07-29.2 68.62-29.2 68.62-19.04 74.12-19.04Q81.44-19.04 81.44-24.37ZM83.42-9.69L83.42-9.69Q83.42-12.48 81.25-13.94 79.07-15.41 74.78-15.41L74.78-15.41 68.62-15.41 68.62-3.74 75.12-3.74Q79.39-3.74 81.4-5.21 83.42-6.69 83.42-9.69ZM116.89-2.71L116.89-2.71Q117.52-2.71 118.33-2.88L118.33-2.88 118.33-0.15Q116.67 0.24 114.93 0.24L114.93 0.24Q112.49 0.24 111.38-1.04 110.27-2.32 110.12-5.05L110.12-5.05 109.98-5.05Q108.39-2.1 106.23-0.81 104.07 0.49 100.9 0.49L100.9 0.49Q97.04 0.49 95.09-1.61 93.13-3.71 93.13-7.37L93.13-7.37Q93.13-15.89 104.22-16.02L104.22-16.02 109.98-16.11 109.98-17.55Q109.98-20.75 108.68-22.16 107.39-23.56 104.56-23.56L104.56-23.56Q101.68-23.56 100.41-22.53 99.14-21.51 98.89-19.36L98.89-19.36 94.3-19.78Q95.43-26.9 104.63-26.9L104.63-26.9Q109.51-26.9 111.97-24.62 114.42-22.34 114.42-18.02L114.42-18.02 114.42-6.64Q114.42-4.69 114.93-3.7 115.45-2.71 116.89-2.71ZM102.02-2.86L102.02-2.86Q104.36-2.86 106.17-3.98 107.98-5.1 108.98-6.98 109.98-8.86 109.98-10.86L109.98-10.86 109.98-13.04 105.34-12.94Q102.46-12.89 100.94-12.3 99.43-11.72 98.59-10.51 97.75-9.3 97.75-7.3L97.75-7.3Q97.75-5.3 98.83-4.08 99.92-2.86 102.02-2.86ZM145.89-7.54L145.89-7.54Q145.89-3.78 143.04-1.65 140.2 0.49 135.17 0.49L135.17 0.49Q130.14 0.49 127.52-1.09 124.89-2.66 124.09-6.05L124.09-6.05 127.97-6.81Q128.43-4.71 129.96-3.75 131.48-2.78 135.17-2.78L135.17-2.78Q141.76-2.78 141.76-6.96L141.76-6.96Q141.76-8.52 140.57-9.48 139.37-10.45 136.9-11.06L136.9-11.06Q130.46-12.65 128.73-13.55 126.99-14.45 126.06-15.81 125.14-17.16 125.14-19.19L125.14-19.19Q125.14-22.78 127.72-24.8 130.31-26.83 135.22-26.83L135.22-26.83Q139.52-26.83 142.08-25.21 144.64-23.58 145.28-20.48L145.28-20.48 141.32-20Q141.05-21.75 139.59-22.66 138.12-23.56 135.22-23.56L135.22-23.56Q129.24-23.56 129.24-19.87L129.24-19.87Q129.24-18.41 130.25-17.53 131.26-16.65 133.51-16.11L133.51-16.11 136.42-15.36Q140.4-14.38 142.14-13.43 143.89-12.48 144.89-11.05 145.89-9.62 145.89-7.54ZM176.72-12.28L157.87-12.28Q157.87-7.84 159.84-5.32 161.8-2.81 165.22-2.81L165.22-2.81Q167.74-2.81 169.63-3.89 171.52-4.98 172.16-6.86L172.16-6.86 176.01-5.76Q174.94-2.73 172.07-1.12 169.2 0.49 165.22 0.49L165.22 0.49Q159.46 0.49 156.36-3.1 153.26-6.69 153.26-13.38L153.26-13.38Q153.26-19.9 156.3-23.4 159.34-26.9 165.08-26.9L165.08-26.9Q170.81-26.9 173.77-23.41 176.72-19.92 176.72-12.87L176.72-12.87 176.72-12.28ZM165.12-23.66L165.12-23.66Q161.85-23.66 159.95-21.52 158.04-19.38 157.92-15.65L157.92-15.65 172.18-15.65Q171.5-23.66 165.12-23.66Z" opacity="1" transform="matrix(1,0,0,1,0,0)" fill="black" class="wordmark-text-0" id="SvgjsPath6823"></path></svg></g></svg></g></svg></g></svg></g><g><svg viewBox="0 0 118.94179375222389 118.94179375222389" height="118.94179375222389" width="118.94179375222389"><g><svg></svg></g><g id="SvgjsG6822"><svg viewBox="0 0 118.94179375222389 118.94179375222389" height="118.94179375222389" width="118.94179375222389"><g><path d="M0 59.471c0-32.845 26.626-59.471 59.471-59.471 32.845 0 59.471 26.626 59.471 59.471 0 32.845-26.626 59.471-59.471 59.471-32.845 0-59.471-26.626-59.471-59.471zM59.471 111.984c29.002 0 52.513-23.511 52.513-52.513 0-29.002-23.511-52.513-52.513-52.514-29.002 0-52.513 23.511-52.514 52.514 0 29.002 23.511 52.513 52.514 52.513z" fill="black" stroke="transparent"></path></g><g transform="matrix(1,0,0,1,41.186137121575385,27.955581086308158)"><svg viewBox="0 0 36.569519509073125 63.03063157960757" height="63.03063157960757" width="36.569519509073125"><g><svg xmlns="http://www.w3.org/2000/svg" xmlns:xlink="http://www.w3.org/1999/xlink" version="1.1" x="0" y="0" viewBox="21.679106830508616 1 56.85827385947762 98" enable-background="new 0 0 100 100" xml:space="preserve" height="63.03063157960757" width="36.569519509073125" class="icon-dxe-0" data-fill-palette-color="accent" id="SvgjsSvg6821"><g fill="black"><path fill-rule="evenodd" clip-rule="evenodd" d="M30.545 28.822C29.38 36.039 30.875 43.672 37.045 47.863 30.758 19.81 45.756 8.664 59.646 1 43.466 24.046 76.542 24.644 78.423 51.13 80.028 73.71 64.507 91.317 46.639 99 46.845 76.175 24.089 73.067 21.801 54.397 20.905 47.094 25.062 33.766 30.545 28.822" fill="black"></path></g></svg></g></svg></g></svg></g></svg></g></svg></g><defs><mask></mask></defs></svg><rect width="395.52" height="85.39634216099591" fill="black" stroke="none" visibility="hidden"></rect></g></mask><mask><g id="SvgjsG6820"><svg viewBox="0 0 395.52 85.39634216099591" height="85.39634216099591" width="395.52"><g><svg viewBox="0 0 550.8884464417551 118.94179375222389" height="85.39634216099591" width="395.52"><g transform="matrix(1,0,0,1,155.36844644175517,20.89576356148944)"><svg viewBox="0 0 395.52 77.15026662924501" height="77.15026662924501" width="395.52"><g id="SvgjsG6819"><svg viewBox="0 0 395.52 77.15026662924501" height="77.15026662924501" width="395.52" id="SvgjsSvg6818"><g><svg viewBox="0 0 395.52 77.15026662924501" height="77.15026662924501" width="395.52"><g transform="matrix(1,0,0,1,0,0)"><svg width="395.52" viewBox="2.76 -33.45 173.96 33.940000000000005" height="77.15026662924501" data-palette-color="url(#53e91cbc-8be5-414d-872e-3d32c8b1f4f2)"></svg></g></svg></g></svg></g></svg></g><g><svg viewBox="0 0 118.94179375222389 118.94179375222389" height="118.94179375222389" width="118.94179375222389"><g><svg></svg></g><g id="SvgjsG6817"><svg viewBox="0 0 118.94179375222389 118.94179375222389" height="118.94179375222389" width="118.94179375222389"><g><path d="M0 59.471c0-32.845 26.626-59.471 59.471-59.471 32.845 0 59.471 26.626 59.471 59.471 0 32.845-26.626 59.471-59.471 59.471-32.845 0-59.471-26.626-59.471-59.471zM59.471 111.984c29.002 0 52.513-23.511 52.513-52.513 0-29.002-23.511-52.513-52.513-52.514-29.002 0-52.513 23.511-52.514 52.514 0 29.002 23.511 52.513 52.514 52.513z" fill="black" stroke="transparent"></path></g><g transform="matrix(1,0,0,1,41.186137121575385,27.955581086308158)"><svg viewBox="0 0 36.569519509073125 63.03063157960757" height="63.03063157960757" width="36.569519509073125"><g><svg xmlns="http://www.w3.org/2000/svg" xmlns:xlink="http://www.w3.org/1999/xlink" version="1.1" x="0" y="0" viewBox="21.679106830508616 1 56.85827385947762 98" enable-background="new 0 0 100 100" xml:space="preserve" height="63.03063157960757" width="36.569519509073125" class="icon-dxe-0" data-fill-palette-color="accent" id="SvgjsSvg6816"><g fill="black"><path fill-rule="evenodd" clip-rule="evenodd" d="M30.545 28.822C29.38 36.039 30.875 43.672 37.045 47.863 30.758 19.81 45.756 8.664 59.646 1 43.466 24.046 76.542 24.644 78.423 51.13 80.028 73.71 64.507 91.317 46.639 99 46.845 76.175 24.089 73.067 21.801 54.397 20.905 47.094 25.062 33.766 30.545 28.822" fill="black"></path></g></svg></g></svg></g></svg></g></svg></g></svg></g><defs><mask></mask></defs><mask><g id="SvgjsG6815"><svg viewBox="0 0 395.52 85.39634216099591" height="85.39634216099591" width="395.52"><g><svg viewBox="0 0 550.8884464417551 118.94179375222389" height="85.39634216099591" width="395.52"><g transform="matrix(1,0,0,1,155.36844644175517,20.89576356148944)"><svg viewBox="0 0 395.52 77.15026662924501" height="77.15026662924501" width="395.52"><g id="SvgjsG6814"><svg viewBox="0 0 395.52 77.15026662924501" height="77.15026662924501" width="395.52" id="SvgjsSvg6813"><g><svg viewBox="0 0 395.52 77.15026662924501" height="77.15026662924501" width="395.52"><g transform="matrix(1,0,0,1,0,0)"><svg width="395.52" viewBox="2.76 -33.45 173.96 33.940000000000005" height="77.15026662924501" data-palette-color="url(#53e91cbc-8be5-414d-872e-3d32c8b1f4f2)"><path d="M26.88-17.21L26.88-3.25Q21.29 0.49 15.6 0.49L15.6 0.49Q9.5 0.49 6.13-4.04 2.76-8.57 2.76-16.63L2.76-16.63Q2.76-25.1 5.98-29.27 9.2-33.45 15.67-33.45L15.67-33.45Q24.12-33.45 26.93-25.37L26.93-25.37 22.75-24Q20.8-29.64 15.72-29.64L15.72-29.64Q11.6-29.64 9.63-26.56 7.67-23.49 7.67-16.63L7.67-16.63Q7.67-3.3 15.99-3.3L15.99-3.3Q17.65-3.3 19.43-3.81 21.22-4.32 22.34-5.1L22.34-5.1 22.34-13.31 15.19-13.31 15.19-17.21 26.88-17.21ZM56.78-13.23L56.78-13.23Q56.78-6.57 53.72-3.04 50.66 0.49 44.87 0.49L44.87 0.49Q39.21 0.49 36.19-3.08 33.18-6.64 33.18-13.23L33.18-13.23Q33.18-20.04 36.26-23.47 39.35-26.9 45.02-26.9L45.02-26.9Q50.97-26.9 53.88-23.51 56.78-20.12 56.78-13.23ZM52.17-13.23L52.17-13.23Q52.17-18.48 50.5-21.07 48.83-23.66 45.09-23.66L45.09-23.66Q41.31-23.66 39.55-21.02 37.79-18.38 37.79-13.23L37.79-13.23Q37.79-8.11 39.55-5.43 41.31-2.76 44.82-2.76L44.82-2.76Q48.7-2.76 50.44-5.37 52.17-7.98 52.17-13.23ZM88.13-9.28L88.13-9.28Q88.13-4.88 84.79-2.44 81.44 0 75.48 0L75.48 0 63.96 0 63.96-32.93 74.02-32.93Q86.13-32.93 86.13-24.95L86.13-24.95Q86.13-21.97 84.37-19.97 82.61-17.97 79.58-17.36L79.58-17.36Q83.66-16.92 85.9-14.75 88.13-12.57 88.13-9.28ZM81.44-24.37L81.44-24.37Q81.44-26.98 79.6-28.09 77.75-29.2 74.07-29.2L74.07-29.2 68.62-29.2 68.62-19.04 74.12-19.04Q81.44-19.04 81.44-24.37ZM83.42-9.69L83.42-9.69Q83.42-12.48 81.25-13.94 79.07-15.41 74.78-15.41L74.78-15.41 68.62-15.41 68.62-3.74 75.12-3.74Q79.39-3.74 81.4-5.21 83.42-6.69 83.42-9.69ZM116.89-2.71L116.89-2.71Q117.52-2.71 118.33-2.88L118.33-2.88 118.33-0.15Q116.67 0.24 114.93 0.24L114.93 0.24Q112.49 0.24 111.38-1.04 110.27-2.32 110.12-5.05L110.12-5.05 109.98-5.05Q108.39-2.1 106.23-0.81 104.07 0.49 100.9 0.49L100.9 0.49Q97.04 0.49 95.09-1.61 93.13-3.71 93.13-7.37L93.13-7.37Q93.13-15.89 104.22-16.02L104.22-16.02 109.98-16.11 109.98-17.55Q109.98-20.75 108.68-22.16 107.39-23.56 104.56-23.56L104.56-23.56Q101.68-23.56 100.41-22.53 99.14-21.51 98.89-19.36L98.89-19.36 94.3-19.78Q95.43-26.9 104.63-26.9L104.63-26.9Q109.51-26.9 111.97-24.62 114.42-22.34 114.42-18.02L114.42-18.02 114.42-6.64Q114.42-4.69 114.93-3.7 115.45-2.71 116.89-2.71ZM102.02-2.86L102.02-2.86Q104.36-2.86 106.17-3.98 107.98-5.1 108.98-6.98 109.98-8.86 109.98-10.86L109.98-10.86 109.98-13.04 105.34-12.94Q102.46-12.89 100.94-12.3 99.43-11.72 98.59-10.51 97.75-9.3 97.75-7.3L97.75-7.3Q97.75-5.3 98.83-4.08 99.92-2.86 102.02-2.86ZM145.89-7.54L145.89-7.54Q145.89-3.78 143.04-1.65 140.2 0.49 135.17 0.49L135.17 0.49Q130.14 0.49 127.52-1.09 124.89-2.66 124.09-6.05L124.09-6.05 127.97-6.81Q128.43-4.71 129.96-3.75 131.48-2.78 135.17-2.78L135.17-2.78Q141.76-2.78 141.76-6.96L141.76-6.96Q141.76-8.52 140.57-9.48 139.37-10.45 136.9-11.06L136.9-11.06Q130.46-12.65 128.73-13.55 126.99-14.45 126.06-15.81 125.14-17.16 125.14-19.19L125.14-19.19Q125.14-22.78 127.72-24.8 130.31-26.83 135.22-26.83L135.22-26.83Q139.52-26.83 142.08-25.21 144.64-23.58 145.28-20.48L145.28-20.48 141.32-20Q141.05-21.75 139.59-22.66 138.12-23.56 135.22-23.56L135.22-23.56Q129.24-23.56 129.24-19.87L129.24-19.87Q129.24-18.41 130.25-17.53 131.26-16.65 133.51-16.11L133.51-16.11 136.42-15.36Q140.4-14.38 142.14-13.43 143.89-12.48 144.89-11.05 145.89-9.62 145.89-7.54ZM176.72-12.28L157.87-12.28Q157.87-7.84 159.84-5.32 161.8-2.81 165.22-2.81L165.22-2.81Q167.74-2.81 169.63-3.89 171.52-4.98 172.16-6.86L172.16-6.86 176.01-5.76Q174.94-2.73 172.07-1.12 169.2 0.49 165.22 0.49L165.22 0.49Q159.46 0.49 156.36-3.1 153.26-6.69 153.26-13.38L153.26-13.38Q153.26-19.9 156.3-23.4 159.34-26.9 165.08-26.9L165.08-26.9Q170.81-26.9 173.77-23.41 176.72-19.92 176.72-12.87L176.72-12.87 176.72-12.28ZM165.12-23.66L165.12-23.66Q161.85-23.66 159.95-21.52 158.04-19.38 157.92-15.65L157.92-15.65 172.18-15.65Q171.5-23.66 165.12-23.66Z" opacity="1" transform="matrix(1,0,0,1,0,0)" fill="black" class="wordmark-text-0" id="SvgjsPath6812"></path></svg></g></svg></g></svg></g></svg></g><g><svg viewBox="0 0 118.94179375222389 118.94179375222389" height="118.94179375222389" width="118.94179375222389"><g><svg></svg></g><g id="SvgjsG6811"><svg viewBox="0 0 118.94179375222389 118.94179375222389" height="118.94179375222389" width="118.94179375222389"><g><path d="M0 59.471c0-32.845 26.626-59.471 59.471-59.471 32.845 0 59.471 26.626 59.471 59.471 0 32.845-26.626 59.471-59.471 59.471-32.845 0-59.471-26.626-59.471-59.471zM59.471 111.984c29.002 0 52.513-23.511 52.513-52.513 0-29.002-23.511-52.513-52.513-52.514-29.002 0-52.513 23.511-52.514 52.514 0 29.002 23.511 52.513 52.514 52.513z" fill="black" stroke="transparent"></path></g><g transform="matrix(1,0,0,1,41.186137121575385,27.955581086308158)"><svg viewBox="0 0 36.569519509073125 63.03063157960757" height="63.03063157960757" width="36.569519509073125"><g><svg xmlns="http://www.w3.org/2000/svg" xmlns:xlink="http://www.w3.org/1999/xlink" version="1.1" x="0" y="0" viewBox="21.679106830508616 1 56.85827385947762 98" enable-background="new 0 0 100 100" xml:space="preserve" height="63.03063157960757" width="36.569519509073125" class="icon-dxe-0" data-fill-palette-color="accent" id="SvgjsSvg6810"><g fill="black"><path fill-rule="evenodd" clip-rule="evenodd" d="M30.545 28.822C29.38 36.039 30.875 43.672 37.045 47.863 30.758 19.81 45.756 8.664 59.646 1 43.466 24.046 76.542 24.644 78.423 51.13 80.028 73.71 64.507 91.317 46.639 99 46.845 76.175 24.089 73.067 21.801 54.397 20.905 47.094 25.062 33.766 30.545 28.822" fill="black"></path></g></svg></g></svg></g></svg></g></svg></g></svg></g><defs><mask></mask></defs></svg><rect width="395.52" height="85.39634216099591" fill="black" stroke="none" visibility="hidden"></rect></g></mask></svg><rect width="395.52" height="85.39634216099591" fill="black" stroke="none" visibility="hidden"></rect></g></mask></svg><rect width="395.52" height="85.39634216099591" fill="black" stroke="none" visibility="hidden"></rect></g></mask><linearGradient x1="0" x2="1" y1="0.548" y2="0.55" id="50cb4ef9-2a48-4522-a37c-2fb053a03217"><stop stop-color="#ff6cab" offset="0"></stop><stop stop-color="#7366ff" offset="1"></stop></linearGradient></svg><rect width="395.52" height="85.39634216099591" fill="none" stroke="none" visibility="hidden"></rect></g></svg></g></svg>